<svg width="186" height="54" viewBox="0 0 186 54" fill="none" xmlns="http://www.w3.org/2000/svg">
<path d="M9.95989 13.718H12.7504C14.5715 13.718 15.9537 13.2266 16.897 12.244C17.8534 11.2482 18.3315 9.85941 18.3315 8.07749C18.3315 6.29559 17.8534 4.91331 16.897 3.93065C15.9537 2.93488 14.5715 2.437 12.7504 2.437H9.95989V13.718ZM12.7504 1.2185C14.9383 1.2185 16.648 1.82775 17.8795 3.04626C19.1241 4.25165 19.7465 5.92874 19.7465 8.07749C19.7465 10.2262 19.1307 11.8837 17.8992 13.0498C16.6677 14.2028 14.9514 14.7792 12.7504 14.7792H8.58427V1.2185H12.7504ZM23.7469 1.02197C23.7469 1.29712 23.6487 1.53295 23.4521 1.72949C23.2688 1.92602 23.0329 2.02429 22.7447 2.02429C22.4696 2.02429 22.2337 1.92602 22.0372 1.72949C21.8407 1.53295 21.7424 1.29712 21.7424 1.02197C21.7424 0.733719 21.8407 0.491332 22.0372 0.294799C22.2337 0.0982663 22.4696 0 22.7447 0C23.0329 0 23.2688 0.0982663 23.4521 0.294799C23.6487 0.491332 23.7469 0.733719 23.7469 1.02197ZM22.0372 14.7792V4.04857H23.4128V14.7792H22.0372ZM26.0605 7.01621C26.0605 6.12527 26.4273 5.37845 27.161 4.77574C27.8947 4.15994 28.8314 3.85204 29.9712 3.85204C31.111 3.85204 31.9953 4.15339 32.6241 4.75609C33.2661 5.34569 33.6199 6.16457 33.6853 7.21275H32.2704C32.2442 6.55764 32.0215 6.02045 31.6023 5.60118C31.183 5.16881 30.6 4.95262 29.8532 4.95262C29.1065 4.95262 28.5169 5.13605 28.0846 5.50291C27.6654 5.86978 27.4557 6.31524 27.4557 6.83933C27.4557 7.35032 27.6129 7.75649 27.9274 8.05784C28.2418 8.35918 28.6348 8.5623 29.1065 8.66709C29.5913 8.77187 30.1087 8.8964 30.659 9.0405C31.2223 9.18459 31.7398 9.34182 32.2115 9.51218C32.6962 9.6694 33.0958 9.9642 33.4102 10.3966C33.7246 10.8158 33.8819 11.3596 33.8819 12.0278C33.8819 12.8925 33.5216 13.6001 32.801 14.1503C32.0805 14.7006 31.1306 14.9758 29.9515 14.9758C28.7855 14.9758 27.8619 14.6745 27.1806 14.0717C26.4994 13.469 26.126 12.6502 26.0605 11.6151H27.4754C27.5017 12.2833 27.7375 12.8271 28.1829 13.2463C28.6283 13.6655 29.2375 13.8752 30.0105 13.8752C30.7965 13.8752 31.4057 13.7115 31.8381 13.3839C32.2704 13.0432 32.4866 12.6109 32.4866 12.0868C32.4866 11.5626 32.3294 11.1499 32.0149 10.8486C31.7005 10.5473 31.301 10.3441 30.8162 10.2393C30.3445 10.1214 29.8271 9.99038 29.2637 9.84628C28.7134 9.70219 28.196 9.55148 27.7112 9.39426C27.2396 9.23703 26.8465 8.95536 26.5321 8.54917C26.2177 8.143 26.0605 7.63201 26.0605 7.01621ZM41.3019 5.1295H38.3345V12.244C38.3345 12.7811 38.4394 13.1612 38.6489 13.3839C38.8586 13.5935 39.2319 13.6983 39.7691 13.6983H41.3019V14.7792H39.4743C37.7974 14.7792 36.9589 13.9342 36.9589 12.244V5.1295H35.4653V4.04857H36.9589V1.35608H38.3345V4.04857H41.3019V5.1295ZM44.5615 4.04857V5.81736C45.1511 4.50714 46.2582 3.85204 47.8826 3.85204V5.28673H47.4896C46.5463 5.28673 45.8192 5.54222 45.3083 6.0532C44.8104 6.56419 44.5615 7.44204 44.5615 8.68674V14.7792H43.1859V4.04857H44.5615ZM51.8236 1.02197C51.8236 1.29712 51.7254 1.53295 51.5288 1.72949C51.3454 1.92602 51.1095 2.02429 50.8214 2.02429C50.5463 2.02429 50.3104 1.92602 50.1139 1.72949C49.9174 1.53295 49.8191 1.29712 49.8191 1.02197C49.8191 0.733719 49.9174 0.491332 50.1139 0.294799C50.3104 0.0982663 50.5463 0 50.8214 0C51.1095 0 51.3454 0.0982663 51.5288 0.294799C51.7254 0.491332 51.8236 0.733719 51.8236 1.02197ZM50.1139 14.7792V4.04857H51.4895V14.7792H50.1139ZM55.1787 13.4428C54.2223 12.4209 53.7441 11.0779 53.7441 9.41391C53.7441 7.74993 54.2223 6.40696 55.1787 5.38499C56.135 4.36302 57.3797 3.85204 58.9125 3.85204C61.428 3.85204 63.0263 4.97882 63.7076 7.2324H62.2337C62.0109 6.51178 61.6113 5.95494 61.0349 5.56187C60.4715 5.1557 59.7641 4.95262 58.9125 4.95262C57.7989 4.95262 56.8949 5.33914 56.2006 6.11216C55.5062 6.87209 55.159 7.97267 55.159 9.41391C55.159 10.8421 55.5062 11.9427 56.2006 12.7157C56.8949 13.4887 57.7989 13.8752 58.9125 13.8752C59.7641 13.8752 60.4715 13.6787 61.0349 13.2856C61.6113 12.8794 62.0109 12.3161 62.2337 11.5954H63.7076C63.3669 12.6174 62.797 13.4363 61.9979 14.0521C61.1987 14.6679 60.1702 14.9758 58.9125 14.9758C57.3797 14.9758 56.135 14.4648 55.1787 13.4428ZM70.9907 5.1295H68.0233V12.244C68.0233 12.7811 68.128 13.1612 68.3377 13.3839C68.5472 13.5935 68.9206 13.6983 69.4578 13.6983H70.9907V14.7792H69.1631C67.486 14.7792 66.6476 13.9342 66.6476 12.244V5.1295H65.1541V4.04857H66.6476V1.35608H68.0233V4.04857H70.9907V5.1295ZM90.406 7.90061C90.0522 8.33298 89.5341 8.68022 88.8535 8.94223C88.1849 9.1912 87.3988 9.31564 86.4948 9.31564H84.2152V14.7792H81.4443V1.06128H86.4948C88.0801 1.06128 89.2983 1.46089 90.1505 2.26013C91.0152 3.04626 91.4475 3.97651 91.4475 5.05089C91.4475 6.12527 91.1 7.07517 90.406 7.90061ZM84.2152 7.19309H86.4948C87.1891 7.19309 87.7197 7.01621 88.0866 6.66245C88.4535 6.29559 88.6373 5.80426 88.6373 5.18846C88.6373 4.57266 88.4535 4.08788 88.0866 3.73412C87.7197 3.36726 87.1891 3.18383 86.4948 3.18383H84.2152V7.19309ZM96.3059 9.31564V14.7792H93.535V1.06128H98.5855C100.17 1.06128 101.389 1.46089 102.241 2.26013C103.105 3.04626 103.538 4.02237 103.538 5.18846C103.538 6.0532 103.275 6.85899 102.752 7.60581C102.227 8.35263 101.402 8.86362 100.276 9.13876L103.774 14.7792H100.492L97.2099 9.31564H96.3059ZM96.3059 3.18383V7.19309H98.5855C99.2796 7.19309 99.8102 7.01621 100.177 6.66245C100.544 6.29559 100.728 5.80426 100.728 5.18846C100.728 4.57266 100.544 4.08788 100.177 3.73412C99.8102 3.36726 99.2796 3.18383 98.5855 3.18383H96.3059ZM106.297 14.7792V1.06128H109.068V14.7792H106.297ZM120.997 1.02197H123.767V14.7792H120.997L114.787 5.26707V14.7792H112.016V1.02197H114.787L120.997 10.5341V1.02197ZM125.91 3.18383V1.06128H136.07V3.18383H132.356V14.7792H129.605V3.18383H125.91ZM138.193 14.7792V1.06128H140.964V14.7792H138.193ZM152.892 1.02197H155.663V14.7792H152.892L146.682 5.26707V14.7792H143.911V1.02197H146.682L152.892 10.5341V1.02197ZM159.869 12.9122C158.521 11.5889 157.845 9.91176 157.845 7.88096C157.845 5.85012 158.521 4.17304 159.869 2.84972C161.233 1.52641 162.896 0.864744 164.861 0.864744C166.355 0.864744 167.678 1.2447 168.831 2.00463C169.997 2.76456 170.829 3.83239 171.326 5.20811H168.005C167.39 4.00272 166.342 3.40001 164.861 3.40001C163.617 3.40001 162.601 3.81273 161.815 4.63817C161.042 5.4505 160.656 6.53799 160.656 7.90061C160.656 9.25016 161.042 10.3376 161.815 11.163C162.601 11.9754 163.558 12.3816 164.684 12.3816C165.824 12.3816 166.715 12.1064 167.357 11.5561C168.012 10.9927 168.418 10.2393 168.575 9.29599H164.016V7.19309H171.543V9.29599C171.307 10.7896 170.573 12.0999 169.342 13.2266C168.111 14.3404 166.558 14.8972 164.684 14.8972C162.824 14.8972 161.219 14.2355 159.869 12.9122ZM4.28408 51.5433C3.09187 51.5433 2.07654 51.1371 1.23806 50.3248C0.412687 49.4994 0 48.5102 0 47.3572C0 46.2042 0.327533 45.2412 0.982587 44.4682C1.63764 43.6952 2.43682 43.2431 3.3801 43.1121C2.60713 41.9853 2.22065 41.0027 2.22065 40.1641C2.22065 39.3125 2.56127 38.5525 3.24254 37.8843C3.9238 37.203 4.86053 36.8624 6.05273 36.8624C7.24494 36.8624 8.1882 37.1768 8.88262 37.8057C9.57695 38.4346 9.92416 39.1749 9.92416 40.0265C9.92416 40.4589 9.84555 40.8323 9.68834 41.1468H7.03532C7.15323 40.9371 7.21219 40.6751 7.21219 40.3606C7.21219 40.0331 7.10082 39.7579 6.87811 39.5352C6.66849 39.3125 6.39336 39.2011 6.05273 39.2011C5.71211 39.2011 5.43698 39.3125 5.22736 39.5352C5.01774 39.7579 4.91293 40.0527 4.91293 40.4196C4.91293 40.7734 5.10945 41.2123 5.50249 41.7364L12.754 51.4058H9.53113L8.01791 49.3225C7.67728 49.9776 7.16633 50.5149 6.48507 50.9341C5.81691 51.3403 5.08325 51.5433 4.28408 51.5433ZM2.92811 48.6936C3.30804 49.0867 3.76659 49.2832 4.30373 49.2832C4.84087 49.2832 5.29942 49.0867 5.67935 48.6936C6.07239 48.2874 6.2689 47.8027 6.2689 47.2393C6.2689 46.6759 6.07239 46.2042 5.67935 45.8242C5.29942 45.4312 4.84087 45.2346 4.30373 45.2346C3.76659 45.2346 3.30804 45.4312 2.92811 45.8242C2.54818 46.2042 2.35821 46.6759 2.35821 47.2393C2.35821 47.8027 2.54818 48.2874 2.92811 48.6936ZM28.1664 37.6485V39.771H23.0177V43.3676H27.5769V45.4901H23.0177V49.2832H28.1664V51.4058H20.2468V37.6485H28.1664ZM45.9488 37.6878V51.4058H43.1976V42.7387L39.4637 51.4058H37.4789L33.7647 42.778V51.4058H30.9939V37.6878H34.0792L38.4812 47.8485L42.8831 37.6878H45.9488ZM48.8992 37.6878H54.4606C55.8625 37.6878 56.963 38.0284 57.7621 38.7098C58.5744 39.3911 58.9805 40.2559 58.9805 41.304C58.9805 42.837 58.0897 43.8654 56.3079 44.3896C57.2118 44.5206 57.9324 44.9137 58.4696 45.5688C59.0198 46.2108 59.2949 46.9576 59.2949 47.8092C59.2949 48.8836 58.8889 49.7549 58.0765 50.4231C57.2643 51.0782 56.1638 51.4058 54.775 51.4058H48.8992V37.6878ZM51.6701 39.8104V43.3676H54.1658C54.7816 43.3676 55.2663 43.2169 55.6201 42.9156C55.9869 42.6011 56.1703 42.1622 56.1703 41.5988C56.1703 41.0354 55.9869 40.5965 55.6201 40.282C55.2663 39.9676 54.7816 39.8104 54.1658 39.8104H51.6701ZM51.6701 49.2832H54.4606C55.0764 49.2832 55.5677 49.1195 55.9345 48.7919C56.3145 48.4513 56.5044 47.9861 56.5044 47.3965C56.5044 46.8069 56.3145 46.3418 55.9345 46.0011C55.5546 45.6605 55.0568 45.4901 54.441 45.4901H51.6701V49.2832ZM64.4514 45.9422V51.4058H61.6805V37.6878H66.731C68.3162 37.6878 69.5347 38.0874 70.3862 38.8867C71.2509 39.6728 71.6832 40.6489 71.6832 41.815C71.6832 42.6797 71.4212 43.4855 70.8971 44.2323C70.3731 44.9792 69.5477 45.4901 68.421 45.7653L71.919 51.4058H68.6372L65.3553 45.9422H64.4514ZM64.4514 39.8104V43.8196H66.731C67.4253 43.8196 67.9559 43.6427 68.3228 43.289C68.6896 42.9221 68.873 42.4308 68.873 41.815C68.873 41.1992 68.6896 40.7144 68.3228 40.3606C67.9559 39.9938 67.4253 39.8104 66.731 39.8104H64.4514ZM83.7182 47.7896C84.4912 46.9641 84.8776 45.8701 84.8776 44.5075C84.8776 43.1449 84.4912 42.0573 83.7182 41.245C82.9453 40.4327 81.9365 40.0265 80.6918 40.0265C79.4473 40.0265 78.4319 40.4393 77.6458 41.2647C76.8729 42.077 76.4864 43.1645 76.4864 44.5271C76.4864 45.8767 76.8729 46.9641 77.6458 47.7896C78.4319 48.6019 79.4473 49.0081 80.6918 49.0081C81.9365 49.0081 82.9453 48.6019 83.7182 47.7896ZM80.6918 51.5433C78.7136 51.5433 77.0497 50.8817 75.7003 49.5584C74.3509 48.2351 73.6762 46.5579 73.6762 44.5271C73.6762 42.4832 74.3509 40.7995 75.7003 39.4762C77.0629 38.153 78.7267 37.4913 80.6918 37.4913C82.6701 37.4913 84.334 38.153 85.6834 39.4762C87.0328 40.7995 87.7075 42.4832 87.7075 44.5271C87.7075 46.5579 87.0328 48.2351 85.6834 49.5584C84.334 50.8817 82.6701 51.5433 80.6918 51.5433ZM89.8914 51.4058V37.6878H92.6623V51.4058H89.8914ZM98.381 49.3029H100.268C101.709 49.3029 102.829 48.877 103.628 48.0254C104.427 47.1738 104.827 46.0208 104.827 44.5664C104.827 43.1121 104.427 41.9591 103.628 41.1075C102.829 40.2559 101.709 39.83 100.268 39.83H98.381V49.3029ZM100.268 37.6878C102.469 37.6878 104.244 38.3167 105.593 39.5745C106.956 40.8323 107.637 42.4963 107.637 44.5664C107.637 46.6366 106.956 48.294 105.593 49.5387C104.244 50.7834 102.469 51.4058 100.268 51.4058H95.6101V37.6878H100.268ZM117.732 37.6485V39.771H112.583V43.3676H117.142V45.4901H112.583V49.2832H117.732V51.4058H109.812V37.6485H117.732ZM123.33 45.9422V51.4058H120.559V37.6878H125.609C127.195 37.6878 128.413 38.0874 129.265 38.8867C130.129 39.6728 130.562 40.6489 130.562 41.815C130.562 42.6797 130.3 43.4855 129.776 44.2323C129.251 44.9792 128.426 45.4901 127.299 45.7653L130.797 51.4058H127.516L124.234 45.9422H123.33ZM123.33 39.8104V43.8196H125.609C126.303 43.8196 126.834 43.6427 127.201 43.289C127.568 42.9221 127.751 42.4308 127.751 41.815C127.751 41.1992 127.568 40.7144 127.201 40.3606C126.834 39.9938 126.303 39.8104 125.609 39.8104H123.33ZM139.55 51.4058H136.78V46.689L132.142 37.6878H135.247L138.175 44.1537L141.083 37.6878H144.188L139.55 46.689V51.4058ZM145.281 50.3052H146.873C147.134 51.6547 147.128 52.6046 146.853 53.1549C146.578 53.7183 146.047 54 145.261 54V53.2532C145.864 53.2532 146.165 52.9322 146.165 52.2902V51.7988H145.281V50.3052ZM156.021 51.4058V37.845H157.397V51.4058H156.021ZM169.32 37.845H170.696V51.4058H169.32L161.715 40.0462V51.4058H160.339V37.845H161.715L169.32 49.2046V37.845ZM174.936 49.578C173.613 48.2809 172.951 46.63 172.951 44.6254C172.951 42.6208 173.613 40.9699 174.936 39.6728C176.272 38.3625 177.91 37.7075 179.849 37.7075C181.238 37.7075 182.469 38.0219 183.544 38.6508C184.631 39.2797 185.45 40.1969 186 41.4023H184.33C183.911 40.603 183.308 39.9872 182.522 39.5549C181.736 39.1225 180.845 38.9063 179.849 38.9063C178.263 38.9063 176.954 39.4304 175.919 40.4786C174.883 41.5267 174.366 42.909 174.366 44.6254C174.366 46.3418 174.883 47.7241 175.919 48.7722C176.954 49.8204 178.263 50.3445 179.849 50.3445C180.845 50.3445 181.736 50.1283 182.522 49.6959C183.308 49.2504 183.911 48.6281 184.33 47.8289H186C185.45 49.0342 184.631 49.9514 183.544 50.5803C182.469 51.2092 181.238 51.5237 179.849 51.5237C177.91 51.5237 176.272 50.8751 174.936 49.578Z" fill="#464255"/>
</svg>
